<svg width="186" height="48" viewBox="0 0 186 48" fill="none" xmlns="http://www.w3.org/2000/svg">
<path d="M57.5263 33.7593C57.5022 33.8095 57.4873 33.8635 57.4822 33.919C57.4822 33.9398 57.4777 33.9603 57.4692 33.9793C57.4606 33.9982 57.4482 34.0152 57.4327 34.0291L57.3556 34.1998L57.7851 33.9575C57.9234 33.8822 58.0576 33.7994 58.187 33.7097C58.3207 33.6191 58.4649 33.5452 58.6165 33.4895C58.7541 33.4399 58.8918 33.4014 59.0184 33.3684C59.3043 33.2716 59.5996 33.2052 59.8994 33.1701C60.0379 33.1477 60.1792 33.1477 60.3178 33.1701C60.4904 33.202 60.655 33.2675 60.8023 33.3629C60.938 33.3999 61.0614 33.472 61.1602 33.5721L61.4906 33.9024C61.5204 33.9805 61.5407 34.0618 61.5511 34.1447C61.5582 34.23 61.5786 34.3136 61.6117 34.3925C61.6119 34.5068 61.6027 34.621 61.5842 34.7338C61.5842 34.8329 61.5456 34.9431 61.5126 35.0752C61.4504 35.2195 61.3689 35.3547 61.2703 35.4771C61.1712 35.6038 61.0556 35.7249 60.929 35.857L60.5325 36.248L60.3178 36.4682C60.2545 36.5313 60.1797 36.5817 60.0976 36.6169C59.9798 36.6906 59.8565 36.7551 59.7287 36.8096C59.613 36.8591 59.5029 36.9197 59.3873 36.9803C59.2717 37.0408 59.0294 37.1344 58.8367 37.2005C58.6389 37.2719 58.434 37.3217 58.2255 37.3492C58.0209 37.4227 57.797 37.4227 57.5924 37.3492C57.3695 37.3245 57.153 37.2592 56.9537 37.1564C56.9276 37.1602 56.901 37.1545 56.8788 37.1404C56.8566 37.1262 56.8402 37.1046 56.8325 37.0794C56.8325 37.0794 56.8325 37.0518 56.8325 36.9858V36.9032H56.9041C57.037 36.9278 57.1732 36.9278 57.3061 36.9032C57.4579 36.8884 57.6086 36.8645 57.7575 36.8316H57.8842C57.9663 36.8179 58.045 36.7879 58.1154 36.7435C58.1867 36.6957 58.2646 36.6586 58.3467 36.6334C58.5186 36.5827 58.6862 36.5183 58.8477 36.4407C59.0174 36.3587 59.178 36.2591 59.3267 36.1434L59.5415 36.0002C59.6952 35.9143 59.833 35.8025 59.9489 35.6698C60.07 35.5322 60.1967 35.3945 60.3288 35.2679L60.5105 34.9871C60.5656 34.8935 60.6206 34.7999 60.6702 34.7008C60.7015 34.6262 60.7255 34.5488 60.7418 34.4695C60.7581 34.3933 60.7581 34.3145 60.7418 34.2383V34.0181C60.7328 33.9516 60.7053 33.889 60.6625 33.8374C60.6196 33.7858 60.5632 33.7473 60.4995 33.7262C60.4439 33.6963 60.3808 33.6829 60.3178 33.6877C60.2561 33.7013 60.1923 33.7013 60.1306 33.6877C59.9185 33.7011 59.711 33.7553 59.5194 33.8474C59.3433 33.9355 59.1395 34.0291 58.9083 34.1282C58.6814 34.2149 58.4751 34.3481 58.3026 34.5191L58.0328 34.7118C57.8511 34.8935 57.6694 35.0917 57.4822 35.312C57.2874 35.5453 57.1262 35.8048 57.0032 36.0828L56.8105 36.6334C56.816 36.6494 56.816 36.6669 56.8105 36.6829C56.7279 36.8591 56.6233 36.8922 56.4967 36.7765C56.3977 36.7355 56.3036 36.6838 56.2159 36.6224L55.9571 36.4352C55.94 36.4152 55.9307 36.3898 55.9307 36.3636C55.9307 36.3373 55.94 36.312 55.9571 36.292L56.0837 35.8515C56.2129 35.5577 56.3178 35.2539 56.3976 34.9431L56.6453 34.0181V33.8474V33.7483C56.6526 33.6879 56.6526 33.6269 56.6453 33.5666C56.6429 33.51 56.6583 33.4542 56.6894 33.4069C56.7498 33.3525 56.7889 33.2783 56.7995 33.1977C56.7995 33.1261 56.7995 33.0545 56.8381 32.9884C56.8766 32.9224 56.9041 32.7517 56.9372 32.6085C56.9702 32.4654 57.0032 32.3553 57.0363 32.2562C57.0509 32.1713 57.0935 32.0937 57.1574 32.0359C57.1863 31.9744 57.2233 31.9169 57.2675 31.8652C57.3154 31.7839 57.3366 31.6895 57.3281 31.5954C57.3611 31.4963 57.3886 31.4027 57.4107 31.3146C57.4338 31.2318 57.4711 31.1536 57.5208 31.0834L57.5979 30.8852C57.6132 30.7589 57.6371 30.6338 57.6694 30.5108C57.7101 30.3735 57.7754 30.2447 57.8622 30.1309V30.0813C57.9502 29.9561 58.0103 29.8134 58.0383 29.6629C58.0742 29.4868 58.1495 29.3211 58.2586 29.1783L58.4017 28.7379C58.4513 28.5892 58.5008 28.4516 58.5504 28.3194C58.5834 28.2864 58.6 28.2644 58.6 28.2478C58.6 28.2313 58.6 28.1322 58.6495 28.0056C58.6991 27.8789 58.7596 27.7688 58.7927 27.6862C58.8257 27.6036 58.8202 27.5871 58.8642 27.4385C58.9083 27.2898 58.9688 27.1411 59.0239 26.976C59.079 26.8108 59.1395 26.6621 59.1946 26.5245C59.2497 26.3868 59.2882 26.2987 59.3047 26.2657C59.339 26.18 59.3559 26.0882 59.3543 25.9959V25.7316C59.3941 25.5782 59.3941 25.4171 59.3543 25.2636C59.3873 25.0379 59.5305 24.9553 59.7947 25.0214L59.8773 25.0599H60.015C60.0599 25.0747 60.1008 25.0999 60.1342 25.1333C60.1677 25.1668 60.1929 25.2077 60.2077 25.2526C60.2369 25.2955 60.2609 25.3417 60.2793 25.3903C60.2979 25.4314 60.324 25.4688 60.3563 25.5004C60.3594 25.5315 60.3594 25.5628 60.3563 25.594C60.3527 25.6195 60.3527 25.6455 60.3563 25.6711C60.3279 25.8361 60.2911 25.9997 60.2462 26.1611C60.2065 26.307 60.1452 26.4461 60.0645 26.574L59.8938 27.1632L59.7947 27.3834C59.7821 27.4303 59.7821 27.4797 59.7947 27.5266C59.7965 27.5393 59.7965 27.5523 59.7947 27.5651C59.787 27.5903 59.7759 27.6144 59.7617 27.6367C59.7617 27.6807 59.6901 27.7633 59.6241 27.8955V28.0386C59.3928 28.5892 59.1836 29.0847 58.9854 29.6078C58.7872 30.1309 58.6055 30.6539 58.4348 31.1935C58.2586 31.5679 58.0879 31.9643 57.9337 32.3828C57.7828 32.786 57.656 33.1979 57.5538 33.6161L57.4822 33.7593H57.5263Z" fill="#6E767A"/>
<path d="M67.9649 33.9301C67.9319 34.1118 67.9043 34.2935 67.8823 34.4807C67.8555 34.6685 67.8094 34.853 67.7447 35.0313C67.7447 35.1139 67.7061 35.2185 67.6841 35.3451C67.6621 35.4718 67.6841 35.4938 67.7722 35.3947L68.1466 35.191L68.5045 34.9817C68.7104 34.9091 68.9065 34.8111 69.0881 34.6899C69.2015 34.6568 69.312 34.6145 69.4185 34.5633L69.7488 34.4201L70.0902 34.2825L70.4316 34.1724C70.7124 34.0788 70.9106 34.0127 71.0317 33.9797C71.1969 33.9381 71.3642 33.9051 71.5327 33.8806H71.6429C71.6719 33.8748 71.7019 33.8748 71.731 33.8806C71.8483 33.8883 71.966 33.8883 72.0833 33.8806C72.2045 33.8806 72.265 33.9301 72.265 34.0292C72.2981 34.0292 72.3146 34.0567 72.3146 34.1118C72.3159 34.139 72.31 34.1661 72.2974 34.1903C72.2848 34.2145 72.2661 34.2349 72.243 34.2495C72.2162 34.2475 72.1892 34.2509 72.1637 34.2594C72.1382 34.2679 72.1146 34.2813 72.0944 34.299L71.2409 34.5413C71.1007 34.5769 70.9628 34.621 70.828 34.6734L70.4095 34.8331L70.2168 34.9322C69.8094 35.1121 69.413 35.2956 69.0275 35.4828C68.6476 35.681 68.2677 35.9012 67.8933 36.1435C67.8473 36.1497 67.8047 36.171 67.7722 36.2041C67.7329 36.2346 67.6993 36.2719 67.6731 36.3142C67.6219 36.3318 67.5777 36.3654 67.547 36.41C67.5162 36.4546 67.5006 36.5078 67.5024 36.5619L67.4253 36.8538C67.4253 36.9694 67.3923 37.0685 67.3813 37.1566C67.3647 37.2453 67.3389 37.3321 67.3042 37.4154C67.2712 37.5129 67.2545 37.6152 67.2546 37.7182C67.2586 37.8168 67.2337 37.9144 67.1831 37.999C67.1738 38.0239 67.1738 38.0512 67.1831 38.0761C67.1848 38.2372 67.1587 38.3974 67.106 38.5496C67.0573 38.6903 67.0168 38.8337 66.9848 38.9791L66.8637 39.348C66.7811 39.6233 66.6985 39.8985 66.6049 40.1628C66.5113 40.4271 66.4122 40.7134 66.3021 40.9832C66.2195 41.1649 66.1424 41.3466 66.0709 41.5338C65.9947 41.7219 65.9083 41.9058 65.8121 42.0844C65.6634 42.3927 65.5092 42.7011 65.3496 42.9984C65.1899 43.2957 65.0192 43.593 64.8595 43.8683C64.723 44.0198 64.5961 44.1798 64.4796 44.3473C64.3585 44.518 64.2209 44.6832 64.0777 44.8484C63.751 45.2706 63.3632 45.6418 62.927 45.9496C62.8113 46.0322 62.6902 46.1203 62.5471 46.2084C62.4071 46.2989 62.2551 46.3693 62.0956 46.4176C61.725 46.5744 61.3136 46.6072 60.9228 46.5112L60.4603 46.3405C60.3777 46.2579 60.2951 46.1753 60.2125 46.0817C60.1292 45.9884 60.0554 45.887 59.9923 45.7789L59.8987 45.3384C59.867 45.1863 59.8504 45.0313 59.8491 44.8759C59.8628 44.8273 59.8628 44.7759 59.8491 44.7273C59.8459 44.6704 59.8459 44.6134 59.8491 44.5566C59.8491 44.4244 59.8767 44.2923 59.8877 44.1546C59.8928 44.0152 59.9207 43.8776 59.9703 43.7472C59.9639 43.72 59.9639 43.6918 59.9703 43.6646C59.9782 43.6358 59.9782 43.6053 59.9703 43.5765C59.9888 43.4358 60.022 43.2974 60.0694 43.1636C60.1189 43.0149 60.163 42.8773 60.2125 42.7451C60.3447 42.4698 60.4878 42.1945 60.642 41.9137C60.7877 41.6488 60.9553 41.3965 61.143 41.1594C61.2752 40.9777 61.4018 40.8125 61.534 40.6584C61.6661 40.5042 61.7927 40.3335 61.9249 40.1573C62.0236 40.0586 62.1138 39.9518 62.1947 39.838C62.28 39.7212 62.3779 39.6142 62.4865 39.5186C62.5129 39.4963 62.5336 39.468 62.5471 39.4361C62.5526 39.4224 62.5608 39.41 62.5712 39.3996C62.5816 39.3892 62.594 39.381 62.6076 39.3755C62.7495 39.2633 62.8855 39.1438 63.0151 39.0176C63.1362 38.8965 63.2628 38.7808 63.395 38.6652C63.5394 38.4854 63.7059 38.3245 63.8905 38.1862C64.0828 38.0468 64.2667 37.896 64.4411 37.7347C64.7054 37.5585 64.9531 37.3713 65.1899 37.1841C65.4267 36.9969 65.6799 36.8152 65.9607 36.6335L66.3131 36.3692C66.4342 36.2701 66.5554 36.182 66.6655 36.0995L66.8142 35.9893C66.8394 35.9655 66.8589 35.9363 66.8713 35.9039C66.8837 35.8715 66.8886 35.8367 66.8857 35.8021C66.9169 35.6872 66.9335 35.5688 66.9353 35.4498C66.9412 35.3199 66.9672 35.1917 67.0124 35.0698C67.0076 35.0296 67.0076 34.9889 67.0124 34.9487C67.0151 34.8992 67.0151 34.8496 67.0124 34.8L67.161 33.6273V33.4896C67.155 33.4867 67.1484 33.4852 67.1418 33.4852C67.1351 33.4852 67.1285 33.4867 67.1225 33.4896H67.0839L66.7921 33.831C66.5994 34.0457 66.4067 34.255 66.2415 34.4642C66.0547 34.6841 65.8503 34.8885 65.6304 35.0753C65.6167 35.0915 65.5998 35.1046 65.5808 35.1139C65.559 35.1291 65.5418 35.1501 65.5313 35.1745C65.4013 35.2939 65.2634 35.4043 65.1183 35.5048C64.9776 35.6011 64.8304 35.6875 64.6779 35.7636C64.4596 35.878 64.2131 35.9276 63.9676 35.9067C63.9348 35.9122 63.9013 35.9122 63.8685 35.9067H63.7694C63.6757 35.9048 63.5841 35.8791 63.5031 35.8319C63.4222 35.7846 63.3546 35.7176 63.3069 35.637C63.2023 35.5039 63.1392 35.3431 63.1252 35.1745C63.1179 35.0104 63.129 34.846 63.1582 34.6844C63.1912 34.5688 63.2243 34.4587 63.2463 34.3541C63.2691 34.2513 63.2985 34.1502 63.3344 34.0512C63.395 33.9026 63.4721 33.7209 63.5546 33.5006C63.6372 33.2804 63.7088 33.1152 63.7694 32.9886C63.807 32.9342 63.8605 32.8927 63.9227 32.8701C63.9848 32.8474 64.0524 32.8445 64.1162 32.862C64.1492 32.8955 64.1913 32.9185 64.2374 32.928C64.2794 32.9317 64.3204 32.9429 64.3585 32.9611C64.4297 33.0001 64.483 33.0652 64.5072 33.1428C64.54 33.2259 64.54 33.3184 64.5072 33.4015L64.2098 34.0843C64.1768 34.1834 64.1493 34.277 64.1162 34.3706L64.0171 34.6239C63.9667 34.7135 63.9366 34.8131 63.929 34.9157C63.9183 35.0291 63.8981 35.1415 63.8685 35.2515C63.8676 35.2653 63.8701 35.279 63.8759 35.2915C63.8817 35.304 63.8905 35.3149 63.9015 35.3231C63.9147 35.3314 63.93 35.3358 63.9456 35.3358C63.9612 35.3358 63.9764 35.3314 63.9896 35.3231L64.331 35.1524C64.5292 35.0038 64.7164 34.8551 64.8816 34.7009C65.0788 34.5316 65.2628 34.3475 65.4322 34.1503L66.3351 33.1483L66.5829 32.7794C66.66 32.7023 66.7371 32.6142 66.8142 32.5261C66.8853 32.4347 66.9626 32.3483 67.0454 32.2673C67.1445 32.1352 67.2822 32.1187 67.4583 32.2178C67.5039 32.2095 67.5505 32.2095 67.596 32.2178L67.7061 32.2618C67.7849 32.3028 67.8526 32.3623 67.9034 32.4352C67.9542 32.5081 67.9867 32.5921 67.9979 32.6803C67.9979 32.7959 67.9979 32.906 67.9979 33.0106C68.0114 33.1277 68.0114 33.2459 67.9979 33.363C67.966 33.4453 67.9529 33.5337 67.9594 33.6218C67.9751 33.7238 67.977 33.8276 67.9649 33.9301ZM60.5649 44.2703C60.4857 44.5495 60.4688 44.8427 60.5154 45.1292C60.528 45.3085 60.5787 45.483 60.664 45.6412C60.7181 45.7718 60.8102 45.883 60.9283 45.9606C61.0083 46.0127 61.1028 46.0378 61.1981 46.0322C61.3066 46.0063 61.4133 45.9732 61.5174 45.9331L62.1506 45.6137C62.3493 45.4933 62.534 45.3511 62.7012 45.1898C62.8554 45.0356 63.0206 44.8649 63.2023 44.6887C63.3983 44.4792 63.5822 44.2586 63.7529 44.028C63.9235 43.7857 64.0942 43.5325 64.2539 43.2682C64.4136 43.0039 64.5072 42.8497 64.6118 42.646L64.9146 42.0459C65.1366 41.6877 65.3211 41.3076 65.4652 40.9116C65.6029 40.5262 65.7405 40.1408 65.8671 39.7499C66.0856 39.2476 66.2498 38.7234 66.3572 38.1862C66.3517 38.1701 66.3517 38.1527 66.3572 38.1366C66.3666 38.1137 66.3666 38.088 66.3572 38.0651C66.4301 37.9098 66.4802 37.7447 66.5058 37.575C66.5389 37.3768 66.5719 37.2172 66.6049 37.085C66.6049 37.052 66.6325 37.0079 66.649 36.9529C66.6543 36.9071 66.6543 36.8609 66.649 36.8152C66.6499 36.8085 66.6492 36.8017 66.6471 36.7952C66.6449 36.7888 66.6413 36.783 66.6365 36.7782C66.6317 36.7734 66.6258 36.7698 66.6194 36.7676C66.613 36.7654 66.6061 36.7648 66.5994 36.7657L66.3021 37.063C66.1204 37.1782 65.9491 37.309 65.7901 37.4539C65.6335 37.5925 65.47 37.723 65.3 37.8448L64.9862 38.0871C64.9862 38.1367 64.9091 38.1917 64.81 38.2578C64.6346 38.3869 64.4672 38.5266 64.309 38.6762C64.1548 38.8194 64.0116 38.957 63.885 39.0892L63.395 39.5297C63.24 39.6681 63.0929 39.8152 62.9545 39.9701C62.6008 40.3415 62.2733 40.7371 61.9744 41.1539C61.6826 41.5724 61.4238 42.0128 61.121 42.4863C60.972 42.766 60.845 43.0569 60.7411 43.3563C60.6395 43.6511 60.5802 43.9588 60.5649 44.2703Z" fill="#6E767A"/>
<path d="M77.9361 38.1145C77.7881 38.1123 77.6405 38.0957 77.4957 38.065L77.2534 38.0154L77.0827 38.0044C77.0134 37.9969 76.9461 37.9764 76.8845 37.9438C76.7552 37.9237 76.6324 37.8733 76.5262 37.7968C76.42 37.7202 76.3333 37.6197 76.2733 37.5033C76.1919 37.4061 76.1301 37.2939 76.0916 37.173L75.954 36.7931C75.9457 36.7759 75.9414 36.7571 75.9414 36.738C75.9414 36.719 75.9457 36.7001 75.954 36.683L76.0036 36.5728C76.0294 36.4844 76.073 36.4022 76.1317 36.3312C76.1904 36.2602 76.2629 36.2019 76.3449 36.1599C76.5597 36.0112 76.7689 35.8681 76.9836 35.7304C77.193 35.5936 77.4141 35.4757 77.6443 35.3781C77.7256 35.354 77.8007 35.3127 77.8646 35.2569C77.987 35.1613 78.1223 35.0835 78.2665 35.0257C78.4054 34.9658 78.5397 34.8959 78.6684 34.8165C78.7111 34.8062 78.752 34.7895 78.7896 34.7669C79.1199 34.5687 79.4448 34.387 79.7696 34.2163L80.7497 33.7153C80.8606 33.6351 80.9786 33.5651 81.1021 33.506C81.2232 33.451 81.3498 33.3794 81.482 33.3023C81.6022 33.2234 81.7341 33.164 81.8729 33.1261C82.1512 33.004 82.4137 32.8487 82.6547 32.6636C82.6953 32.6384 82.7281 32.6024 82.7495 32.5596C82.7709 32.5168 82.78 32.469 82.7759 32.4214C82.7969 32.3155 82.838 32.2145 82.897 32.124C82.9309 32.0988 82.9579 32.0654 82.9752 32.0268C82.9925 31.9883 82.9997 31.9459 82.9961 31.9038C82.9961 31.8267 83.0236 31.7496 83.0346 31.6891C83.0433 31.613 83.0637 31.5387 83.0952 31.4688C83.0834 31.4369 83.0834 31.4017 83.0952 31.3697C83.1091 31.1315 83.1554 30.8962 83.2329 30.6705C83.3044 30.4502 83.3815 30.23 83.4641 29.9988C83.4967 29.903 83.5243 29.8056 83.5467 29.7069C83.5467 29.6078 83.6018 29.5087 83.6348 29.4151C83.6769 29.2273 83.734 29.0432 83.8055 28.8645C83.8385 28.7324 83.877 28.5947 83.9266 28.4461C83.9746 28.3015 84.0151 28.1544 84.0477 28.0056C84.0642 27.9258 84.0901 27.8481 84.1248 27.7744C84.1537 27.7007 84.1686 27.6223 84.1689 27.5431C84.2182 27.4125 84.2569 27.2781 84.2845 27.1412C84.2845 26.998 84.334 26.8659 84.3671 26.7337C84.3988 26.6744 84.4159 26.6083 84.4166 26.541C84.4085 26.4752 84.4085 26.4086 84.4166 26.3428C84.5853 25.6807 84.6686 24.9998 84.6644 24.3166C84.6956 24.1998 84.7123 24.0796 84.714 23.9587V23.6064C84.6809 23.3971 84.7745 23.3035 85.0058 23.3366C85.1404 23.3613 85.2717 23.4019 85.3967 23.4577C85.5064 23.4728 85.6058 23.5302 85.6737 23.6177C85.7416 23.7051 85.7726 23.8157 85.7601 23.9257C85.727 24.1514 85.7105 24.3827 85.6995 24.6194C85.6937 24.8582 85.649 25.0943 85.5674 25.3187C85.5576 25.3826 85.5576 25.4475 85.5674 25.5114C85.5511 25.6688 85.5253 25.8251 85.4903 25.9794C85.4573 26.1226 85.4242 26.2767 85.3912 26.4419C85.3637 26.6071 85.3306 26.7613 85.2976 26.9209C85.2624 27.0829 85.2126 27.2414 85.1489 27.3944C85.1169 27.4884 85.1002 27.587 85.0994 27.6863C85.1012 27.7811 85.0764 27.8746 85.0278 27.956C84.9617 28.2203 84.8901 28.4681 84.8186 28.7159C84.747 28.9636 84.6699 29.2059 84.5873 29.4482C84.5543 29.5638 84.5212 29.6684 84.4882 29.7675C84.4552 29.8666 84.4221 29.9712 84.3891 30.0868L84.0753 31.188L83.9376 31.5569C83.8985 31.6751 83.8708 31.7968 83.855 31.9203C83.8457 31.9452 83.8457 31.9726 83.855 31.9974H83.9046H83.9541L84.2129 31.8543C84.306 31.8001 84.3912 31.7334 84.4662 31.656C84.4938 31.6281 84.5278 31.6073 84.5653 31.5955C84.6038 31.586 84.6384 31.5648 84.6644 31.5349L85.0884 31.3367C85.2286 31.2739 85.3647 31.2022 85.4958 31.122C85.5572 31.0566 85.6324 31.0058 85.716 30.9733L85.9583 30.8742C86.0822 30.8448 86.1939 30.7774 86.2776 30.6815C86.3794 30.58 86.504 30.5045 86.641 30.4613C86.7147 30.4325 86.7849 30.3956 86.8503 30.3511C86.917 30.3009 86.9869 30.2549 87.0595 30.2135C87.1375 30.1822 87.2115 30.1415 87.2797 30.0924L87.4724 30.0043C87.5529 29.9732 87.6274 29.9285 87.6927 29.8721C87.7415 29.8243 87.7996 29.7868 87.8634 29.762C87.8985 29.7481 87.93 29.7266 87.9558 29.699C87.9815 29.6714 88.0007 29.6383 88.012 29.6023L88.3919 29.3711C88.519 29.2964 88.6538 29.2355 88.7939 29.1894C88.8859 29.158 88.9759 29.1212 89.0636 29.0793C89.1493 29.0338 89.2304 28.9804 89.3059 28.9196C89.3727 28.8864 89.4355 28.8458 89.4931 28.7985L89.6748 28.6498L89.7959 28.5782C89.9053 28.434 90.0466 28.3171 90.2089 28.2369C90.3743 28.1535 90.5311 28.0539 90.6769 27.9395L91.2275 27.5651L91.7781 27.1852C92.136 26.9044 92.4938 26.6346 92.8793 26.3648C93.2381 26.0961 93.5801 25.8055 93.9034 25.4949L94.0135 25.3848C94.055 25.3451 94.0992 25.3083 94.1456 25.2747C94.3569 25.157 94.5438 25 94.6962 24.8122C94.8063 24.7131 94.9055 24.691 94.988 24.7406C95.1134 24.8054 95.2225 24.8976 95.3074 25.0104L95.379 25.1315C95.4444 25.2146 95.4794 25.3176 95.4781 25.4233C95.4343 25.5277 95.3663 25.6201 95.2799 25.6931C95.097 25.8766 94.902 26.0477 94.6962 26.2052C94.5145 26.3373 94.3383 26.475 94.1456 26.6236C93.9529 26.7723 93.7988 26.9044 93.6226 27.0366C93.5302 27.1154 93.4306 27.1854 93.3252 27.2458C93.2277 27.3027 93.1387 27.3731 93.061 27.455C92.8793 27.5651 92.7031 27.6863 92.5104 27.8074L91.9598 28.1873C91.8673 28.2644 91.7678 28.3326 91.6624 28.391L91.3706 28.5782L90.9302 28.881C90.7815 28.9912 90.6273 29.0903 90.4677 29.1894C90.308 29.2885 90.0217 29.4482 89.818 29.5803C89.6142 29.7124 89.405 29.8336 89.1958 29.9437C88.9866 30.0538 88.7553 30.1804 88.5571 30.3016C88.3589 30.4227 88.1662 30.5493 87.9735 30.6815L87.6817 30.8522C87.553 30.9004 87.4294 30.9613 87.3128 31.0339L86.9714 31.2431L86.5915 31.4743C86.4704 31.5459 86.3437 31.6175 86.2116 31.6836C86.0982 31.7339 85.9879 31.7909 85.8812 31.8543L85.5784 32.047L85.1599 32.2947C85.0168 32.3718 84.8681 32.4489 84.7195 32.515H84.6754C84.5469 32.6403 84.3979 32.7427 84.2349 32.8178C84.0698 32.8894 83.9156 32.9665 83.7669 33.049L83.5742 33.1482C83.4472 33.2231 83.3456 33.3343 83.2824 33.4675C83.2512 33.6394 83.2014 33.8074 83.1338 33.9685C83.0677 34.1227 83.0016 34.2879 82.9355 34.4696C82.8585 34.7944 82.7704 35.1083 82.6823 35.4111C82.5942 35.7139 82.4896 36.0167 82.3739 36.3251C82.3244 36.4572 82.2803 36.5894 82.2418 36.727C82.1987 36.867 82.1692 37.0108 82.1537 37.1565C82.1207 37.1895 82.1537 37.206 82.1812 37.206C82.2451 37.2161 82.3101 37.2161 82.3739 37.206C82.6052 37.206 82.8199 37.206 83.0236 37.206C83.24 37.2196 83.457 37.2196 83.6733 37.206C83.7978 37.1923 83.9233 37.1923 84.0477 37.206H84.4276H84.7965C84.919 37.2145 85.042 37.2014 85.1599 37.1675H85.3086C85.5029 37.2022 85.7005 37.2151 85.8977 37.206C86.0921 37.195 86.287 37.195 86.4814 37.206H86.7512C86.849 37.2116 86.9464 37.2226 87.043 37.2391L88.1442 37.2886H88.3974C88.4861 37.2886 88.5739 37.3054 88.6562 37.3382C88.7624 37.3496 88.8694 37.3496 88.9756 37.3382C89.2617 37.34 89.5471 37.3658 89.829 37.4153C89.9226 37.4478 90.0223 37.4591 90.1208 37.4483H90.4401L90.7099 37.4978C90.7997 37.5054 90.8899 37.5054 90.9797 37.4978C91.0892 37.4812 91.2006 37.4812 91.3101 37.4978L91.6349 37.5419C91.7604 37.5944 91.8953 37.6206 92.0313 37.619C92.1985 37.6161 92.3653 37.6364 92.5269 37.6795L93.0059 37.7897C93.1058 37.8157 93.1982 37.8647 93.2757 37.9328C93.3418 37.9989 93.3308 38.0595 93.2757 38.109C93.082 38.2644 92.8413 38.3498 92.593 38.3513C92.3721 38.3525 92.1514 38.3396 91.9322 38.3127C91.7127 38.2902 91.4922 38.2791 91.2715 38.2797H90.4181C90.3187 38.2797 90.2201 38.263 90.1263 38.2301C90.0773 38.2192 90.0266 38.2192 89.9776 38.2301C89.8408 38.252 89.7015 38.252 89.5647 38.2301L89.1462 38.1696H88.7443C88.6066 38.1696 88.469 38.1696 88.3424 38.1696C88.1957 38.1615 88.0486 38.1615 87.9019 38.1696C87.7609 38.1704 87.6203 38.1538 87.4834 38.12C87.4504 38.12 87.4284 38.12 87.4119 38.12C87.1512 38.12 86.898 38.109 86.652 38.087C86.4031 38.0288 86.1479 38.001 85.8922 38.0044H85.4738C85.41 38.0149 85.3449 38.0149 85.2811 38.0044C85.0407 37.9438 84.7891 37.9438 84.5488 38.0044C84.5222 38.0204 84.4917 38.0289 84.4607 38.0289C84.4296 38.0289 84.3992 38.0204 84.3726 38.0044C84.2493 37.977 84.1215 37.977 83.9982 38.0044C83.8733 38.0308 83.7459 38.0438 83.6183 38.0429C83.4957 38.0294 83.372 38.0294 83.2494 38.0429H82.886H82.5061C82.3796 38.035 82.2527 38.035 82.1262 38.0429H82.0381C81.9873 38.0416 81.9377 38.0579 81.8975 38.089C81.8574 38.1201 81.8292 38.1641 81.8178 38.2136L81.6471 38.6541C81.5976 38.8523 81.5425 39.045 81.4765 39.2432C81.4104 39.4414 81.3443 39.6341 81.2838 39.8269C81.2232 40.0196 81.1571 40.1902 81.0965 40.3774L80.9369 40.928C80.8763 41.1097 80.8102 41.2804 80.7552 41.4401C80.7001 41.5998 80.6451 41.776 80.5955 41.9577C80.5642 42.1141 80.5238 42.2685 80.4744 42.4202C80.4245 42.5702 80.3913 42.7253 80.3753 42.8827C80.3647 42.9316 80.3647 42.9823 80.3753 43.0313C80.3683 43.0961 80.3361 43.1556 80.2856 43.1968C80.2351 43.2381 80.1704 43.2577 80.1055 43.2516C80.0129 43.2559 79.9206 43.2389 79.8357 43.202C79.7641 43.1785 79.702 43.1326 79.6584 43.0712C79.6148 43.0097 79.592 42.936 79.5934 42.8606C79.5607 42.7813 79.5607 42.6922 79.5934 42.6129C79.658 42.4699 79.6989 42.3174 79.7146 42.1614C79.7309 42.0054 79.7718 41.8531 79.8357 41.7099C79.9018 41.5681 79.9553 41.4207 79.9954 41.2694C80.0339 41.1263 80.0724 40.9776 80.1055 40.8289C80.0961 40.7891 80.0961 40.7476 80.1055 40.7078C80.1817 40.5829 80.2392 40.4475 80.2762 40.3059C80.3074 40.1693 80.3479 40.035 80.3973 39.9039C80.4303 39.7718 80.4689 39.6397 80.5184 39.4965C80.5671 39.3577 80.6076 39.2161 80.6396 39.0725L80.7607 38.7752L80.9093 38.2246C80.9093 38.1641 80.9094 38.131 80.8378 38.131L77.9361 38.1145ZM79.2851 37.2556H79.9183H80.579C80.7869 37.2585 80.9938 37.225 81.1902 37.1565C81.3058 37.1565 81.3608 37.1069 81.3608 37.0078C81.3608 36.9087 81.4324 36.7435 81.482 36.6059C81.5307 36.468 81.5549 36.3226 81.5535 36.1764C81.56 36.0976 81.5865 36.0218 81.6306 35.9562C81.68 35.9105 81.7145 35.851 81.7297 35.7855C81.7447 35.7183 81.7688 35.6535 81.8013 35.5928C81.8344 35.479 81.8619 35.3689 81.8839 35.2624C81.9123 35.1569 81.9492 35.0538 81.994 34.9541C82.0107 34.8312 82.0364 34.7098 82.0711 34.5907C82.1041 34.4751 82.1317 34.354 82.1647 34.2218C82.1752 34.1896 82.1752 34.1549 82.1647 34.1227C82.159 34.0918 82.159 34.06 82.1647 34.0291C82.1647 33.963 82.1317 33.9465 82.0711 33.9795L81.3113 34.3209L79.9403 35.0807C79.5659 35.2734 79.2025 35.4717 78.8391 35.6644L77.7765 36.2755C77.6034 36.3681 77.4361 36.471 77.2754 36.5839C77.1164 36.69 76.9655 36.8077 76.8239 36.9362C76.8106 36.9464 76.8 36.9599 76.7933 36.9753C76.7865 36.9907 76.7838 37.0076 76.7854 37.0243C76.7867 37.0336 76.7914 37.042 76.7985 37.0481C76.8056 37.0542 76.8146 37.0575 76.8239 37.0574C76.8775 37.0886 76.9348 37.1126 76.9946 37.1289C77.0512 37.1378 77.1088 37.1378 77.1653 37.1289L77.8866 37.2281C78.1429 37.253 78.4011 37.253 78.6574 37.2281L79.2851 37.2556Z" fill="#6E767A"/>
<path d="M98.936 35.9835C98.8022 35.9869 98.6691 35.9625 98.5451 35.9119C98.4101 35.8431 98.2795 35.7659 98.1542 35.6807C98.0257 35.5942 97.9169 35.4817 97.8348 35.3503C97.6213 35.0652 97.4643 34.7419 97.3723 34.3978C97.3741 34.3878 97.3735 34.3775 97.3706 34.3677C97.3677 34.3579 97.3626 34.349 97.3557 34.3415C97.3487 34.334 97.3402 34.3283 97.3307 34.3247C97.3211 34.3211 97.3109 34.3197 97.3008 34.3207L96.8823 34.7392L96.161 35.3228C95.9324 35.5213 95.6915 35.7052 95.4398 35.8734L94.9662 36.1432C94.8086 36.2245 94.6397 36.282 94.4652 36.3139C94.2689 36.3824 94.062 36.4159 93.8541 36.413C93.7123 36.4294 93.5694 36.3937 93.452 36.3127C93.3345 36.2317 93.2504 36.1108 93.2154 35.9725L93.0226 35.6036C92.9775 35.5042 92.9541 35.3962 92.9541 35.287C92.9541 35.1778 92.9775 35.0698 93.0226 34.9704C93.0563 34.8399 93.1102 34.7154 93.1823 34.6015C93.2525 34.4931 93.3133 34.3789 93.364 34.2602L93.6338 33.9188C93.8651 33.66 94.1018 33.4067 94.3551 33.17C94.6027 32.9422 94.8678 32.7342 95.1479 32.5478L95.5664 32.3055C95.7882 32.1748 96.0412 32.1063 96.2987 32.1073C96.3581 32.1023 96.4178 32.1111 96.4732 32.1331C96.5287 32.1551 96.5782 32.1896 96.618 32.234C96.8238 32.4217 96.9678 32.6674 97.031 32.9387C97.025 32.9912 97.0081 33.0418 96.9814 33.0874C96.9319 33.1204 96.8988 33.1204 96.8878 33.0874L96.7171 32.9387C96.6345 32.8616 96.5575 32.8451 96.4969 32.8892C96.4363 32.9332 96.2326 32.9552 96.106 32.9773C95.966 33.0029 95.8329 33.0573 95.7151 33.1369C95.4154 33.2863 95.1421 33.4834 94.9057 33.7206C94.8378 33.756 94.7794 33.8069 94.735 33.8692C94.3623 34.1711 94.0551 34.5458 93.832 34.9704C93.6966 35.1279 93.6037 35.3175 93.5622 35.521C93.5292 35.5871 93.5457 35.6201 93.6118 35.6201C93.6576 35.6372 93.706 35.6465 93.7549 35.6476H93.8816C93.9969 35.613 94.1147 35.5872 94.234 35.5706C94.3519 35.5562 94.465 35.5147 94.5643 35.4494C95.0275 35.2435 95.4478 34.9521 95.8032 34.5905L96.3868 34.1005L96.5244 34.0179C96.5648 33.9934 96.6018 33.9638 96.6345 33.9298C96.7593 33.7866 96.886 33.649 97.0145 33.5168C97.1483 33.3702 97.2733 33.2158 97.3889 33.0543C97.4019 33.0283 97.4203 33.0054 97.4429 32.987C97.4655 32.9687 97.4918 32.9555 97.52 32.9482C97.5482 32.9409 97.5776 32.9397 97.6062 32.9447C97.6349 32.9497 97.6622 32.9608 97.6862 32.9773L97.9064 33.0874C97.9779 33.1225 98.0373 33.1781 98.0771 33.2471C98.0771 33.3131 98.1046 33.3682 98.1101 33.4067C98.1232 33.4592 98.1232 33.514 98.1101 33.5664C98.1101 33.6655 98.0826 33.7701 98.0716 33.8802C98.0606 33.9904 98.0716 34.1115 98.0716 34.2271C98.068 34.4885 98.1265 34.747 98.2423 34.9814C98.2717 35.0127 98.3102 35.0339 98.3524 35.042C98.3934 35.0532 98.4311 35.074 98.4625 35.1026C98.6711 35.2458 98.9198 35.319 99.1728 35.3118C99.4246 35.3037 99.6728 35.2496 99.9051 35.1521C100.037 35.1026 100.147 35.0695 100.246 35.042C100.368 35.0088 100.483 34.9568 100.588 34.8878C100.762 34.7517 100.946 34.6284 101.138 34.5189C101.326 34.402 101.492 34.2529 101.628 34.0785C101.678 34.0289 101.766 33.9298 101.898 33.7701C101.987 33.6681 102.068 33.5595 102.14 33.4453L102.212 33.3957C102.212 33.3957 102.251 33.3682 102.322 33.3682C102.394 33.3682 102.432 33.3682 102.432 33.3957L102.531 33.5389C102.581 33.6545 102.531 33.8032 102.421 33.9959C102.311 34.1886 102.207 34.3152 102.14 34.3978C101.81 34.8763 101.37 35.2689 100.858 35.543C100.414 35.8008 99.9162 35.9516 99.404 35.9835H99.1838C99.0406 36.0276 98.9691 36.0165 98.936 35.9835Z" fill="#6E767A"/>
<path d="M107.2 35.9835C107.066 35.9874 106.933 35.963 106.809 35.9119C106.674 35.8443 106.543 35.767 106.418 35.6807C106.29 35.5942 106.181 35.4817 106.099 35.3503C105.882 35.0669 105.723 34.7431 105.631 34.3978C105.631 34.3482 105.631 34.3207 105.56 34.3207L105.147 34.7392C104.899 34.9319 104.662 35.1301 104.425 35.3228C104.196 35.52 103.955 35.7038 103.704 35.8734C103.539 35.9725 103.379 36.0606 103.225 36.1432C103.068 36.2261 102.899 36.2837 102.724 36.3139C102.528 36.3833 102.321 36.4169 102.113 36.413C101.972 36.4291 101.83 36.3933 101.713 36.3122C101.597 36.2312 101.514 36.1104 101.48 35.9725L101.281 35.6036C101.236 35.5042 101.213 35.3962 101.213 35.287C101.213 35.1778 101.236 35.0698 101.281 34.9704C101.313 34.8391 101.367 34.7142 101.441 34.6015C101.511 34.4931 101.572 34.3789 101.623 34.2601L101.893 33.9188C102.12 33.6572 102.361 33.4072 102.614 33.17C102.862 32.9422 103.127 32.7342 103.407 32.5478L103.825 32.3055C104.047 32.1743 104.3 32.1058 104.557 32.1073C104.616 32.1023 104.675 32.1112 104.73 32.1332C104.784 32.1552 104.833 32.1897 104.871 32.234C105.081 32.4198 105.227 32.6661 105.29 32.9387C105.284 32.9912 105.267 33.0418 105.24 33.0874C105.189 33.1204 105.156 33.1204 105.141 33.0874L104.97 32.9387C104.888 32.8616 104.816 32.8451 104.75 32.8892C104.684 32.9332 104.491 32.9552 104.359 32.9773C104.22 33.0039 104.087 33.0582 103.968 33.1369C103.671 33.2878 103.4 33.4848 103.164 33.7206C103.096 33.7544 103.037 33.8056 102.994 33.8692C102.619 34.1708 102.31 34.5455 102.085 34.9704C101.952 35.1293 101.859 35.3183 101.816 35.521C101.782 35.5871 101.799 35.6201 101.865 35.6201C101.913 35.6372 101.963 35.6465 102.014 35.6476H102.135C102.252 35.613 102.372 35.5872 102.493 35.5706C102.611 35.5562 102.724 35.5147 102.823 35.4494C103.286 35.2427 103.706 34.9514 104.062 34.5905L104.651 34.1005L104.783 34.0179C104.825 33.9948 104.862 33.965 104.893 33.9298L105.273 33.5168C105.394 33.3847 105.521 33.2305 105.653 33.0543C105.666 33.0285 105.683 33.0056 105.706 32.9873C105.728 32.969 105.754 32.9557 105.781 32.9484C105.809 32.9411 105.838 32.9399 105.866 32.9448C105.895 32.9498 105.921 32.9609 105.945 32.9773L106.165 33.0874C106.238 33.121 106.297 33.177 106.336 33.2471C106.336 33.3131 106.363 33.3682 106.374 33.4067C106.385 33.4595 106.385 33.5137 106.374 33.5664C106.355 33.6702 106.343 33.775 106.336 33.8802C106.336 33.9959 106.336 34.1115 106.336 34.2271C106.332 34.4885 106.391 34.747 106.507 34.9814C106.535 35.0141 106.574 35.0355 106.617 35.042C106.657 35.0544 106.695 35.075 106.727 35.1026C106.935 35.2468 107.184 35.3202 107.437 35.3118C107.689 35.3031 107.937 35.249 108.169 35.1521C108.281 35.1094 108.395 35.0727 108.511 35.042C108.632 35.0077 108.747 34.9558 108.852 34.8878C109.026 34.7516 109.21 34.6284 109.403 34.5189C109.59 34.4005 109.755 34.2517 109.893 34.0784C109.937 34.0289 110.03 33.9298 110.157 33.7701C110.249 33.6692 110.332 33.5605 110.405 33.4453L110.476 33.3957C110.476 33.3957 110.515 33.3682 110.586 33.3682C110.658 33.3682 110.697 33.3682 110.697 33.3957L110.796 33.5389C110.845 33.6545 110.796 33.8032 110.686 33.9959C110.575 34.1886 110.471 34.3152 110.405 34.3978C110.074 34.8763 109.635 35.2689 109.122 35.543C108.678 35.8008 108.18 35.9516 107.668 35.9835H107.448C107.305 36.0276 107.228 36.0165 107.2 35.9835Z" fill="#6E767A"/>
<path d="M109.348 35.9616C109.43 35.9138 109.499 35.8455 109.547 35.7634L109.596 35.6203C109.629 35.4055 109.662 35.1908 109.706 34.9706C109.746 34.7488 109.766 34.5241 109.767 34.2989V34.007C109.767 33.8749 109.783 33.7483 109.816 33.6271C109.833 33.501 109.833 33.3733 109.816 33.2472V33.1756C109.846 33.0178 109.857 32.857 109.849 32.6966C109.849 32.5425 109.849 32.3828 109.816 32.2231C109.783 32.0634 109.86 32.0965 109.959 32.0965C110.062 32.1063 110.162 32.1323 110.257 32.1736L110.4 32.2451C110.497 32.2901 110.579 32.3626 110.636 32.4535C110.693 32.5445 110.722 32.65 110.719 32.7572C110.716 32.7865 110.716 32.816 110.719 32.8453C110.725 32.8725 110.725 32.9007 110.719 32.9279C110.686 33.1595 110.67 33.3932 110.67 33.6271C110.668 33.8705 110.636 34.1126 110.576 34.3484L110.45 35.323C110.45 35.323 110.45 35.356 110.499 35.3615C110.511 35.3689 110.524 35.3728 110.538 35.3728C110.551 35.3728 110.565 35.3689 110.576 35.3615L110.67 35.3119C110.706 35.2937 110.74 35.2695 110.769 35.2404C110.94 35.1164 111.124 35.0129 111.319 34.932C111.509 34.8513 111.693 34.7575 111.87 34.6512C112.046 34.5521 112.255 34.4475 112.492 34.3319C112.729 34.2163 112.971 34.1117 113.214 34.0181C113.456 33.9245 113.704 33.8309 113.946 33.7593C114.188 33.6877 114.403 33.6326 114.584 33.5996C114.688 33.5871 114.793 33.6043 114.887 33.6492C114.943 33.668 114.992 33.7045 115.026 33.7531C115.059 33.8017 115.076 33.8598 115.075 33.9189C115.082 33.9516 115.082 33.9854 115.075 34.0181C115.065 34.0352 115.05 34.0491 115.033 34.058C115.015 34.0668 114.995 34.0702 114.975 34.0676C114.909 34.0861 114.845 34.11 114.783 34.1392C114.711 34.168 114.637 34.192 114.562 34.2108L114.243 34.3319C114.177 34.3301 114.111 34.3432 114.05 34.3704L113.88 34.4585C113.771 34.4897 113.665 34.5264 113.56 34.5686C113.501 34.5872 113.444 34.6111 113.39 34.6402L113.23 34.7118L112.971 34.8219C112.856 34.8577 112.75 34.9157 112.657 34.9926C112.393 35.1247 112.14 35.2624 111.887 35.4111C111.621 35.5629 111.347 35.7008 111.066 35.824C111.014 35.8528 110.964 35.8859 110.918 35.9231C110.823 36.0024 110.717 36.0673 110.604 36.1158C110.536 36.1417 110.472 36.1789 110.416 36.2259C110.371 36.2803 110.339 36.3443 110.323 36.4131C110.288 36.5314 110.268 36.6534 110.262 36.7765C110.23 36.8881 110.208 37.0024 110.196 37.1179C110.187 37.233 110.161 37.3462 110.119 37.4538C110.086 37.6189 110.053 37.7456 110.026 37.8447C110.008 37.8629 109.995 37.8846 109.986 37.9083C109.978 37.932 109.974 37.9572 109.976 37.9823C109.984 38.0352 109.984 38.0891 109.976 38.142L109.904 38.577C109.904 38.6596 109.871 38.7477 109.855 38.8468C109.839 38.9422 109.806 39.0338 109.756 39.1166C109.725 39.2621 109.684 39.4056 109.635 39.546C109.583 39.6933 109.543 39.8442 109.514 39.9975C109.494 40.0904 109.465 40.1809 109.425 40.2673C109.388 40.3614 109.36 40.4592 109.343 40.5591C109.279 40.6218 109.237 40.7026 109.222 40.7904C109.205 40.8791 109.179 40.9658 109.145 41.0491L108.484 42.5908C108.459 42.7097 108.399 42.8188 108.313 42.9046C108.22 43.0863 108.121 43.2625 108.021 43.4552C107.922 43.6479 107.818 43.8131 107.702 44.0058C107.63 44.1411 107.549 44.2716 107.46 44.3968C107.431 44.4653 107.394 44.5301 107.35 44.5895L107.24 44.7381C107.213 44.8537 107.162 44.9624 107.091 45.0575C107.03 45.1345 106.953 45.2281 106.871 45.3217L106.75 45.4924C106.722 45.5187 106.698 45.5483 106.678 45.5805C106.659 45.6066 106.642 45.6342 106.628 45.6631C106.509 45.8307 106.374 45.9873 106.226 46.1311C106.089 46.2578 105.946 46.4064 105.797 46.5716C105.63 46.7408 105.445 46.8922 105.246 47.0231C105.054 47.1473 104.854 47.2577 104.646 47.3534C104.393 47.4625 104.116 47.5042 103.842 47.4746H103.694C103.653 47.4698 103.613 47.4698 103.573 47.4746C103.377 47.4473 103.19 47.3798 103.022 47.2764C102.867 47.1784 102.723 47.0639 102.593 46.935C102.515 46.8028 102.438 46.6762 102.361 46.5551C102.285 46.4171 102.247 46.2612 102.251 46.1036C102.17 45.8551 102.137 45.5936 102.152 45.3328C102.169 45.074 102.202 44.8166 102.251 44.5619C102.296 44.3042 102.361 44.0502 102.444 43.8021L102.593 43.4222L102.763 42.9982C102.841 42.8088 102.931 42.6249 103.033 42.4476C103.149 42.2439 103.292 41.9962 103.473 41.6988C103.504 41.6705 103.532 41.6391 103.556 41.6052C103.586 41.5684 103.607 41.525 103.617 41.4786C103.646 41.392 103.689 41.3103 103.743 41.2363C103.831 40.9993 103.968 40.7835 104.145 40.6032C104.302 40.4426 104.446 40.2695 104.575 40.0856C104.642 39.9695 104.734 39.8698 104.844 39.7938L105.026 39.6011L105.208 39.3808C105.274 39.2817 105.34 39.1936 105.406 39.111C105.485 39.0159 105.585 38.9405 105.698 38.8908C105.706 38.8863 105.712 38.8799 105.717 38.8722C105.722 38.8646 105.725 38.8558 105.725 38.8468C105.725 38.8468 105.725 38.8137 105.775 38.7972C105.812 38.7602 105.853 38.727 105.896 38.6981L106.067 38.577C106.167 38.5171 106.258 38.4429 106.337 38.3567C106.571 38.1216 106.824 37.9044 107.091 37.707C107.388 37.4868 107.686 37.2776 107.983 37.0738L108.814 36.5233C109.006 36.3499 109.185 36.1621 109.348 35.9616ZM109.376 37.0133C109.376 36.9307 109.348 36.8811 109.299 36.8646C109.29 36.8579 109.279 36.8543 109.269 36.8543C109.258 36.8543 109.247 36.8579 109.238 36.8646H109.178C109.088 36.9183 109.006 36.9851 108.935 37.0628C108.756 37.1567 108.587 37.2713 108.434 37.4042C108.284 37.5329 108.115 37.6387 107.933 37.718C107.878 37.7535 107.828 37.7961 107.785 37.8447C107.537 38.095 107.276 38.3321 107.003 38.5549C106.876 38.6337 106.761 38.7301 106.661 38.8413C106.564 38.9449 106.457 39.039 106.342 39.1221C106.226 39.2322 106.116 39.3368 106.001 39.4359C105.891 39.53 105.793 39.6372 105.709 39.7552C105.527 39.9535 105.362 40.1407 105.208 40.3058C105.052 40.4967 104.909 40.6972 104.778 40.906L104.459 41.3465C104.22 41.6681 104.005 42.0067 103.815 42.3596C103.629 42.7045 103.462 43.0592 103.314 43.4222L103.215 43.681L103.116 43.9398L102.961 44.5674C102.915 44.7171 102.89 44.873 102.89 45.0299C102.89 45.1786 102.89 45.3328 102.89 45.4924C102.879 45.6556 102.879 45.8193 102.89 45.9825C102.907 46.0166 102.917 46.0543 102.917 46.0926C102.919 46.1333 102.934 46.1722 102.961 46.2027C102.979 46.3329 103.022 46.4584 103.088 46.5716L103.259 46.8139C103.329 46.8727 103.412 46.9142 103.501 46.935C103.591 46.9471 103.681 46.9471 103.771 46.935L104.162 46.8359L104.233 46.7973C104.262 46.782 104.289 46.7615 104.31 46.7368C104.397 46.6692 104.491 46.6119 104.591 46.5661C104.694 46.5168 104.789 46.4518 104.872 46.3734C105.278 45.9847 105.647 45.5589 105.973 45.1015L106.193 44.8207C106.253 44.7312 106.318 44.6449 106.386 44.5619L106.805 43.9287C106.829 43.9025 106.849 43.8728 106.865 43.8406C106.873 43.812 106.884 43.7844 106.898 43.7581C107.014 43.5764 107.118 43.3947 107.218 43.2075C107.317 43.0203 107.421 42.8496 107.537 42.6569C107.653 42.4642 107.73 42.2604 107.818 42.0622C107.906 41.864 107.999 41.6658 108.098 41.4841V41.4346C108.132 41.3219 108.172 41.2115 108.22 41.1042L108.368 40.8014C108.401 40.6857 108.434 40.5756 108.462 40.471C108.489 40.3664 108.528 40.2563 108.561 40.1407C108.677 39.8323 108.759 39.5901 108.82 39.4304C108.884 39.2314 108.928 39.0268 108.952 38.8192L109.018 38.5549L109.139 38.0925L109.211 37.7456C109.289 37.5945 109.34 37.4303 109.359 37.2611L109.376 37.0133ZM110.301 30.3401C110.17 30.3378 110.043 30.2956 109.937 30.219C109.879 30.1925 109.834 30.1441 109.811 30.0843C109.788 30.0244 109.79 29.958 109.816 29.8996C109.844 29.851 109.86 29.796 109.86 29.7399C109.863 29.6764 109.88 29.6142 109.91 29.5582C109.927 29.511 109.947 29.465 109.971 29.4206C109.999 29.3801 110.021 29.3356 110.037 29.2884C110.064 29.2554 110.114 29.2554 110.18 29.2884C110.265 29.3234 110.344 29.3738 110.411 29.4371C110.488 29.4977 110.565 29.5748 110.648 29.6518C110.7 29.6905 110.737 29.7474 110.75 29.8115C110.763 29.8756 110.752 29.9423 110.719 29.9987L110.648 30.1914C110.608 30.2443 110.555 30.2858 110.494 30.3119C110.433 30.3379 110.367 30.3477 110.301 30.3401Z" fill="#6E767A"/>
<path d="M120.42 35.9835C120.286 35.9863 120.153 35.9619 120.029 35.9119C119.895 35.8419 119.764 35.7647 119.638 35.6807C119.51 35.5942 119.401 35.4817 119.319 35.3503C119.105 35.0652 118.948 34.7419 118.857 34.3978C118.857 34.3482 118.857 34.3207 118.785 34.3207L118.366 34.7392L117.645 35.3228C117.417 35.5213 117.176 35.7052 116.924 35.8734C116.764 35.9725 116.605 36.0606 116.45 36.1432C116.293 36.2253 116.124 36.2829 115.949 36.3139C115.753 36.3824 115.546 36.4159 115.338 36.413C115.196 36.4294 115.054 36.3937 114.936 36.3127C114.819 36.2317 114.735 36.1108 114.7 35.9725L114.507 35.6036C114.459 35.5057 114.431 35.3989 114.427 35.2899C114.422 35.1809 114.44 35.0721 114.479 34.9704C114.513 34.8399 114.567 34.7154 114.639 34.6015C114.713 34.4945 114.776 34.3801 114.826 34.2602L115.09 33.9188C115.322 33.66 115.558 33.4067 115.812 33.17C116.06 32.9408 116.327 32.7327 116.61 32.5478L117.023 32.3055C117.245 32.1756 117.498 32.1071 117.755 32.1073C117.815 32.1023 117.874 32.1111 117.93 32.1331C117.985 32.1551 118.035 32.1896 118.075 32.234C118.284 32.4198 118.43 32.6661 118.493 32.9387C118.487 32.9912 118.47 33.0418 118.444 33.0874C118.396 33.1204 118.363 33.1204 118.344 33.0874L118.174 32.9387C118.091 32.8616 118.02 32.8451 117.954 32.8892C117.887 32.9332 117.695 32.9552 117.563 32.9773C117.423 33.0039 117.29 33.0582 117.172 33.1369C116.874 33.2894 116.601 33.4862 116.362 33.7206C116.294 33.756 116.236 33.8069 116.192 33.8692C115.819 34.1711 115.512 34.5458 115.289 34.9704C115.153 35.1279 115.06 35.3175 115.019 35.521C114.986 35.5871 115.002 35.6201 115.068 35.6201C115.116 35.6372 115.166 35.6465 115.217 35.6476H115.338C115.454 35.6135 115.571 35.5878 115.691 35.5706C115.809 35.5562 115.922 35.5147 116.021 35.4494C116.49 35.2453 116.916 34.9538 117.276 34.5905L117.865 34.1005L117.998 34.0179C118.038 33.9934 118.075 33.9638 118.108 33.9298L118.488 33.5168C118.609 33.3847 118.735 33.2305 118.868 33.0543C118.88 33.0285 118.898 33.0056 118.92 32.9873C118.942 32.969 118.968 32.9557 118.996 32.9484C119.023 32.9411 119.052 32.9399 119.081 32.9448C119.109 32.9498 119.136 32.9609 119.159 32.9773L119.38 33.0874C119.452 33.121 119.512 33.177 119.55 33.2471C119.55 33.3131 119.578 33.3682 119.589 33.4067C119.598 33.4595 119.598 33.5136 119.589 33.5664C119.572 33.6703 119.561 33.7751 119.556 33.8802C119.556 33.9977 119.556 34.1133 119.556 34.2271C119.554 34.489 119.614 34.7475 119.732 34.9814C119.76 35.0149 119.799 35.0365 119.842 35.042C119.883 35.0544 119.92 35.075 119.952 35.1026C120.159 35.246 120.406 35.3194 120.657 35.3118C120.909 35.3043 121.157 35.2502 121.389 35.1521C121.521 35.1026 121.637 35.0695 121.736 35.042C121.857 35.0067 121.971 34.9548 122.077 34.8878C122.252 34.7517 122.436 34.6284 122.628 34.5189C122.817 34.4035 122.983 34.2542 123.118 34.0785C123.168 34.0289 123.256 33.9298 123.388 33.7701C123.478 33.6695 123.56 33.5608 123.63 33.4453L123.707 33.3957C123.707 33.3957 123.74 33.3682 123.817 33.3682C123.894 33.3682 123.927 33.3682 123.927 33.3957L124.021 33.5389C124.042 33.6182 124.043 33.7015 124.024 33.7813C124.004 33.861 123.966 33.9348 123.911 33.9959C123.79 34.1831 123.696 34.3152 123.63 34.3978C123.301 34.8774 122.861 35.2703 122.347 35.543C121.904 35.8008 121.406 35.9516 120.894 35.9835H120.673C120.634 36.0038 120.591 36.0144 120.547 36.0144C120.503 36.0144 120.459 36.0038 120.42 35.9835Z" fill="#6E767A"/>
<path d="M122.694 37.674C122.672 37.6415 122.66 37.6031 122.66 37.5639C122.66 37.5247 122.672 37.4864 122.694 37.4538C122.725 37.3711 122.74 37.2833 122.738 37.195V36.9032C122.726 36.7844 122.739 36.6644 122.776 36.5508C122.819 36.4277 122.849 36.3004 122.864 36.1709C122.863 36.0625 122.88 35.9546 122.914 35.8516C122.941 35.7525 122.974 35.6424 123.007 35.5102L123.084 34.9596C123.145 34.8049 123.189 34.6444 123.217 34.4806C123.246 34.31 123.29 34.1424 123.349 33.9796V33.93C123.382 33.8529 123.453 33.6492 123.558 33.3189C123.663 32.9885 123.778 32.6471 123.899 32.2837C124.02 31.9203 124.136 31.5845 124.241 31.2927C124.295 31.1398 124.359 30.9908 124.433 30.8467C124.5 30.665 124.549 30.4998 124.593 30.3456C124.637 30.1729 124.698 30.0051 124.775 29.8446C124.795 29.7504 124.828 29.6596 124.874 29.5748C124.921 29.4787 124.962 29.3794 124.995 29.2775C125.087 29.1155 125.161 28.9437 125.215 28.7654C125.266 28.5971 125.33 28.4332 125.408 28.2754C125.441 28.2754 125.458 28.2424 125.458 28.2314L125.738 27.422C125.832 27.1547 125.942 26.8936 126.069 26.6401C126.168 26.4144 126.261 26.1887 126.35 25.9684C126.447 25.7351 126.525 25.4938 126.581 25.2471L126.63 25.0269C126.63 24.9814 126.64 24.9364 126.658 24.8948C126.675 24.8429 126.675 24.787 126.658 24.7351C126.658 24.6525 126.74 24.5864 126.9 24.5369C127.025 24.5195 127.153 24.5366 127.269 24.5864L127.583 24.7351C127.616 24.7657 127.643 24.8033 127.66 24.8452C127.667 24.8677 127.668 24.8917 127.663 24.9149C127.659 24.938 127.648 24.9595 127.632 24.9773C127.541 25.2973 127.43 25.6117 127.302 25.9189C127.181 26.2217 127.054 26.541 126.928 26.8824L126.377 28.2314C126.361 28.2563 126.352 28.2846 126.35 28.314C126.344 28.3484 126.327 28.3797 126.3 28.402C126.234 28.5617 126.179 28.7159 126.129 28.8535C126.075 28.9994 126.011 29.1411 125.937 29.2775C125.824 29.5014 125.734 29.7355 125.667 29.9767C125.598 30.2198 125.498 30.453 125.369 30.6705C125.338 30.7837 125.298 30.8942 125.248 31.0008C125.197 31.1163 125.157 31.236 125.127 31.3587L124.968 31.7827C124.896 31.9919 124.819 32.2232 124.736 32.4819C124.654 32.7407 124.571 33.0325 124.494 33.2638C124.417 33.495 124.345 33.7428 124.296 33.9245C124.246 34.1062 124.23 34.1613 124.186 34.2934C124.149 34.4122 124.121 34.5337 124.103 34.6568C124.07 34.8055 124.043 34.9431 124.015 35.0752C123.987 35.2106 123.943 35.3419 123.883 35.4662C123.817 35.7415 123.756 36.0168 123.712 36.2095C123.664 36.4131 123.647 36.6229 123.663 36.8316C123.662 36.9798 123.646 37.1276 123.613 37.2721C123.579 37.4238 123.57 37.58 123.586 37.7346C123.594 37.7547 123.598 37.7762 123.598 37.7979C123.598 37.8197 123.594 37.8412 123.586 37.8612C123.566 37.8996 123.551 37.9403 123.541 37.9824C123.513 38.1241 123.513 38.2701 123.541 38.4118C123.567 38.5648 123.604 38.7157 123.652 38.8633L123.701 38.9129C123.7 38.9261 123.703 38.9393 123.707 38.9516C123.712 38.964 123.719 38.9752 123.729 38.9845C123.729 38.9845 123.729 38.9845 123.773 38.9845C123.802 38.9603 123.839 38.9471 123.877 38.9471C123.915 38.9471 123.952 38.9603 123.982 38.9845C124.01 39.0054 124.031 39.0332 124.045 39.065C124.058 39.0969 124.063 39.1318 124.059 39.1662C124.045 39.2495 124 39.3244 123.932 39.3754C123.824 39.4527 123.691 39.4879 123.558 39.4745C123.461 39.474 123.366 39.4543 123.277 39.4165C123.188 39.3787 123.108 39.3235 123.04 39.2543C122.94 39.1859 122.862 39.0878 122.82 38.9735C122.787 38.8688 122.76 38.7477 122.727 38.6156C122.754 38.4589 122.754 38.2987 122.727 38.1421C122.701 37.9874 122.69 37.8307 122.694 37.674Z" fill="#6E767A"/>
<path d="M0 2.30935H5.58853V15.7438H7.33391V2.30935H12.9279V0.773193H0V2.30935Z" fill="#6E767A"/>
<path d="M43.4911 7.44639H33.7786V0.773193H32.0332V15.7438H33.7786V8.98806H43.4911V15.7438H45.2365V0.773193H43.4911V7.44639Z" fill="#6E767A"/>
<path d="M67.2327 8.96603H76.4221V7.42437H67.2327V2.30935H77.4517V0.773193H65.4873V15.7438H77.5673V14.2077H67.2327V8.96603Z" fill="#6E767A"/>
<path d="M114.143 7.45167C110.399 6.76343 109.689 5.9045 109.689 4.52802C109.689 3.15153 111.225 2.08338 113.334 2.08338C115.011 2.04317 116.648 2.59921 117.953 3.65257L118.157 3.81225L119.291 2.54588L119.044 2.36969C117.418 1.13536 115.418 0.497706 113.378 0.563741C110.284 0.563741 107.949 2.31463 107.949 4.67117C107.949 7.02771 109.601 8.27206 113.582 9.00435C117.21 9.65955 117.893 10.491 117.893 11.8454C117.893 13.3651 116.34 14.4332 114.116 14.4332C112.057 14.4891 110.057 13.7428 108.538 12.352L108.34 12.1923L107.173 13.3926L107.41 13.5798C109.251 15.146 111.599 15.9894 114.017 15.9528C117.32 15.9528 119.611 14.2185 119.611 11.6968C119.638 9.4283 117.992 8.15643 114.143 7.45167Z" fill="#6E767A"/>
<path d="M145.143 0.773193H139.048V15.7438H140.788V10.3645H144.846C148.094 10.3645 151.376 8.86142 151.376 5.45324C151.376 2.60667 148.926 0.773193 145.143 0.773193ZM140.788 2.30935H145.049C147.918 2.30935 149.63 3.50965 149.63 5.51931V5.55786C149.63 7.51246 147.736 8.82838 144.912 8.82838H140.788V2.30935Z" fill="#6E767A"/>
<path d="M178.073 0.668701H176.592L168.84 15.744H170.684L172.722 11.7081H181.861L183.899 15.744H185.826L178.073 0.668701ZM181.08 10.1885H173.52L177.291 2.72792L181.08 10.1885Z" fill="#6E767A"/>
</svg>
